<svg preserveAspectRatio="none" width="100%" height="100%" overflow="visible" style="display: block;" viewBox="0 0 234 237.209" fill="none" xmlns="http://www.w3.org/2000/svg">
<g id="Frame 6">
<g id="Subtract" filter="url(#filter0_i_0_4)">
<path fill-rule="evenodd" clip-rule="evenodd" d="M119 4C182.513 4 234 55.4873 234 119C234 182.513 182.513 234 119 234C55.4873 234 4 182.513 4 119C4 55.4873 55.4873 4 119 4ZM119 32.75C71.3654 32.75 32.75 71.3654 32.75 119C32.75 166.635 71.3654 205.25 119 205.25C166.635 205.25 205.25 166.635 205.25 119C205.25 71.3654 166.635 32.75 119 32.75Z" fill="var(--fill-0, #F5F5F5)"/>
</g>
<g id="Subtract_2" filter="url(#filter1_dii_0_4)">
<path fill-rule="evenodd" clip-rule="evenodd" d="M189.868 47.8309C195.466 42.2236 195.515 33.0592 189.265 28.1882C169.816 13.0286 145.368 4 118.814 4C55.404 4 4 55.4873 4 119C4 177.646 47.8287 226.04 104.468 233.111C112.346 234.095 118.814 227.564 118.814 219.625C118.814 211.686 112.33 205.376 104.5 204.064C63.7551 197.236 32.7035 161.75 32.7035 119C32.7035 71.3654 71.2566 32.75 118.814 32.75C137.426 32.75 154.659 38.6645 168.742 48.7194C175.205 53.3342 184.257 53.4511 189.868 47.8309Z" fill="var(--fill-0, #00D4FF)"/>
</g>
</g>
<defs>
<filter id="filter0_i_0_4" x="4" y="4" width="230" height="230" filterUnits="userSpaceOnUse" color-interpolation-filters="sRGB">
<feFlood flood-opacity="0" result="BackgroundImageFix"/>
<feBlend mode="normal" in="SourceGraphic" in2="BackgroundImageFix" result="shape"/>
<feColorMatrix in="SourceAlpha" type="matrix" values="0 0 0 0 0 0 0 0 0 0 0 0 0 0 0 0 0 0 127 0" result="hardAlpha"/>
<feOffset/>
<feGaussianBlur stdDeviation="2"/>
<feComposite in2="hardAlpha" operator="arithmetic" k2="-1" k3="1"/>
<feColorMatrix type="matrix" values="0 0 0 0 0 0 0 0 0 0 0 0 0 0 0 0 0 0 0.1 0"/>
<feBlend mode="normal" in2="shape" result="effect1_innerShadow_0_4"/>
</filter>
<filter id="filter1_dii_0_4" x="0" y="0" width="198.012" height="237.209" filterUnits="userSpaceOnUse" color-interpolation-filters="sRGB">
<feFlood flood-opacity="0" result="BackgroundImageFix"/>
<feColorMatrix in="SourceAlpha" type="matrix" values="0 0 0 0 0 0 0 0 0 0 0 0 0 0 0 0 0 0 127 0" result="hardAlpha"/>
<feOffset/>
<feGaussianBlur stdDeviation="2"/>
<feComposite in2="hardAlpha" operator="out"/>
<feColorMatrix type="matrix" values="0 0 0 0 0 0 0 0 0 0.831373 0 0 0 0 1 0 0 0 0.4 0"/>
<feBlend mode="normal" in2="BackgroundImageFix" result="effect1_dropShadow_0_4"/>
<feBlend mode="normal" in="SourceGraphic" in2="effect1_dropShadow_0_4" result="shape"/>
<feColorMatrix in="SourceAlpha" type="matrix" values="0 0 0 0 0 0 0 0 0 0 0 0 0 0 0 0 0 0 127 0" result="hardAlpha"/>
<feOffset/>
<feGaussianBlur stdDeviation="4"/>
<feComposite in2="hardAlpha" operator="arithmetic" k2="-1" k3="1"/>
<feColorMatrix type="matrix" values="0 0 0 0 1 0 0 0 0 1 0 0 0 0 1 0 0 0 1 0"/>
<feBlend mode="normal" in2="shape" result="effect2_innerShadow_0_4"/>
<feColorMatrix in="SourceAlpha" type="matrix" values="0 0 0 0 0 0 0 0 0 0 0 0 0 0 0 0 0 0 127 0" result="hardAlpha"/>
<feOffset/>
<feGaussianBlur stdDeviation="2"/>
<feComposite in2="hardAlpha" operator="arithmetic" k2="-1" k3="1"/>
<feColorMatrix type="matrix" values="0 0 0 0 0 0 0 0 0 0 0 0 0 0 0 0 0 0 0.2 0"/>
<feBlend mode="normal" in2="effect2_innerShadow_0_4" result="effect3_innerShadow_0_4"/>
</filter>
</defs>
</svg>
